<svg width="24" height="24" viewBox="0 0 24 24" fill="none" xmlns="http://www.w3.org/2000/svg">
<circle cx="12" cy="12" r="11.5" fill="white" stroke="#2B2B2B"/>
<path d="M17.229 6.85541H16.0482V5.67471C16.0483 5.3036 15.7446 5 15.3737 5H6.77116C6.40008 5 6.09648 5.3036 6.09648 5.67471V16.4699C6.09648 16.8409 6.40008 17.1446 6.77119 17.1446H7.95192V18.3253C7.95192 18.6964 8.25538 19 8.62662 19H14.3614C14.7323 19 15.2572 18.7919 15.5273 18.5377L17.412 16.7636C17.6824 16.5094 17.9034 15.9976 17.9034 15.6265L17.9037 7.53017C17.9037 7.15903 17.6001 6.85541 17.229 6.85541ZM7.95186 7.53014V16.6385H6.77116C6.67975 16.6385 6.6025 16.5613 6.6025 16.4699V5.67471C6.6025 5.5833 6.67975 5.50605 6.77116 5.50605H15.3737C15.465 5.50605 15.5424 5.5833 15.5424 5.67471V6.85543H8.62657C8.25532 6.85543 7.95186 7.15903 7.95186 7.53014ZM17.0652 16.3951L15.1804 18.1691C15.1418 18.2054 15.0915 18.241 15.036 18.2748V16.7229C15.036 16.607 15.0828 16.5027 15.1599 16.4252C15.2376 16.3481 15.3419 16.3012 15.4577 16.3012H17.1453C17.1192 16.3368 17.0924 16.3695 17.0652 16.3951ZM17.3973 15.6265C17.3973 15.6766 17.3882 15.7346 17.3744 15.7951H15.4577C14.9458 15.7961 14.531 16.2109 14.53 16.7228V18.4735C14.4698 18.4857 14.4118 18.4939 14.3613 18.4939H8.62657V18.4939C8.53497 18.4939 8.45791 18.4167 8.45791 18.3253V7.53011C8.45791 7.4387 8.53499 7.36146 8.62657 7.36146H17.2289C17.3204 7.36146 17.3976 7.4387 17.3976 7.53011L17.3973 15.6265Z" fill="black"/>
<path d="M15.374 9.21582H10.4825C10.3427 9.21582 10.2295 9.329 10.2295 9.46883C10.2295 9.60867 10.3427 9.72184 10.4825 9.72184H15.374C15.5137 9.72184 15.6271 9.60867 15.6271 9.46883C15.6271 9.329 15.5137 9.21582 15.374 9.21582Z" fill="black"/>
<path d="M15.3737 12.5908H10.4822C10.3423 12.5908 10.2292 12.704 10.2292 12.8438C10.2292 12.9837 10.3424 13.0968 10.4822 13.0968H15.3737C15.5134 13.0968 15.6267 12.9837 15.6267 12.8438C15.6267 12.704 15.5134 12.5908 15.3737 12.5908Z" fill="black"/>
<path d="M13.1807 14.2783H10.4819C10.3421 14.2783 10.2289 14.3915 10.2289 14.5313C10.2289 14.6712 10.3421 14.7843 10.4819 14.7843H13.1807C13.3204 14.7843 13.4335 14.6712 13.4335 14.5313C13.4335 14.3915 13.3204 14.2783 13.1807 14.2783Z" fill="black"/>
<path d="M15.3735 10.9033H10.482C10.3421 10.9033 10.229 11.0165 10.229 11.1563C10.229 11.2962 10.3422 11.4093 10.482 11.4093H15.3735C15.5132 11.4093 15.6265 11.2962 15.6265 11.1563C15.6265 11.0165 15.5132 10.9033 15.3735 10.9033Z" fill="black"/>
</svg>
